<svg xmlns="http://www.w3.org/2000/svg" version="1.1" xmlns:xlink="http://www.w3.org/1999/xlink" xmlns:svgjs="http://svgjs.dev/svgjs" width="1000" height="1000" viewBox="0 0 1000 1000"><rect width="1000" height="1000" fill="#ffffff"></rect><g transform="matrix(0.7,0,0,0.7,150.17298294028495,275.8323041814268)"><svg viewBox="0 0 385 247" data-background-color="#ffffff" preserveAspectRatio="xMidYMid meet" height="641" width="1000" xmlns="http://www.w3.org/2000/svg" xmlns:xlink="http://www.w3.org/1999/xlink"><g id="tight-bounds" transform="matrix(1,0,0,1,-0.09514061715671573,-0.09964634775118952)"><svg viewBox="0 0 385.1902628166487 247.2" height="247.2" width="385.1902628166487"><g><svg viewBox="0 0 395.52 253.82922009775697" height="247.2" width="385.1902628166487"><g transform="matrix(1,0,0,1,0,139.80597540599086)"><svg viewBox="0 0 395.52 114.02324469176611" height="114.02324469176611" width="395.52"><g id="textblocktransform"><svg viewBox="0 0 395.52 114.02324469176611" height="114.02324469176611" width="395.52" id="textblock"><g><svg viewBox="0 0 395.52 73.2314046644116" height="73.2314046644116" width="395.52"><g transform="matrix(1,0,0,1,0,0)"><svg width="395.52" viewBox="1.5 -38.25 280.8299865722656 52" height="73.2314046644116" data-palette-color="#093d65"><path d="M2.25-26.8L2.25-26.8Q2.25-32.15 6.9-35.2 11.55-38.25 17.6-38.25L17.6-38.25Q25.35-38.25 31.2-33.8L31.2-33.8Q34.1-31.55 35.7-27.83 37.3-24.1 37.3-19.6L37.3-19.6Q37.3-10.75 32.25-5.2L32.25-5.2Q27 0.45 19.1 0.45L19.1 0.45Q17.35 0.45 15.4 0 13.45-0.45 12.3-1.2L12.3-1.2Q10.45 0.2 7.58 0.2 4.7 0.2 3.1-1.4 1.5-3 1.5-5.5L1.5-5.5Q1.5-11.4 10.45-15.55L10.45-15.55Q10.7-17.65 11.18-21.23 11.65-24.8 11.93-27 12.2-29.2 12.3-29.9L12.3-29.9Q14.35-31.2 17.05-31.2L17.05-31.2Q18.3-31.2 19.45-30.95L19.45-30.95 16.3-9.6Q15.85-6.75 15.05-4.85L15.05-4.85Q16.6-4.45 17.55-4.45L17.55-4.45Q23.3-4.45 26.45-8.8L26.45-8.8Q29.7-13.35 29.7-19.8L29.7-19.8Q29.7-28.05 23.75-31.65L23.75-31.65Q20.45-33.65 16.5-33.65L16.5-33.65Q11.45-33.65 8.5-30.9L8.5-30.9Q6.8-29.35 6.8-27.15L6.8-27.15Q6.8-26 7.5-24.98 8.2-23.95 9.95-23.8L9.95-23.8 9.45-20.55Q5.8-20.75 4.03-22.58 2.25-24.4 2.25-26.8ZM5.2-6.15L5.2-6.15Q5.2-4.35 6.9-4.35L6.9-4.35Q7.6-4.35 8.38-5.28 9.15-6.2 9.45-8.2L9.45-8.2 9.9-11.3Q5.2-8.65 5.2-6.15ZM65-32.4L65-32.4Q64.2-32.75 63.42-32.75 62.65-32.75 61.92-31.8 61.2-30.85 60.95-29.05L60.95-29.05 58.35-10.5Q57.65-5.45 54.87-2.55 52.1 0.35 47.95 0.35L47.95 0.35Q43.8 0.35 41.52-1.98 39.25-4.3 39.25-7.53 39.25-10.75 41.47-13 43.7-15.25 47.1-15.25L47.1-15.25Q49.2-15.25 50.4-14.95L50.4-14.95 50.15-11.9Q49.3-12.1 47.52-12.1 45.75-12.1 44.37-10.9 43-9.7 43-7.9 43-6.1 44-5.13 45-4.15 46.4-4.15L46.4-4.15Q50.6-4.15 51.3-10.35L51.3-10.35Q52.65-22.75 53.25-27.1L53.25-27.1Q50.25-26.05 47.95-26.05L47.95-26.05Q44.3-26.05 42.37-27.75 40.45-29.45 40.45-32.2 40.45-34.95 42.42-36.52 44.4-38.1 47.4-38.1L47.4-38.1Q49.25-38.1 52.72-36.95 56.2-35.8 58.1-35.8L58.1-35.8Q61.5-35.8 63.8-37.55L63.8-37.55Q65.05-35.8 65.05-33.4L65.05-33.4Q65.05-32.9 65-32.4ZM45.4-30.85L45.4-30.85Q45.4-30.1 46.22-29.55 47.05-29 48.72-29 50.4-29 53.1-30.5L53.1-30.5Q51.15-30.95 49.1-31.53 47.05-32.1 46.65-32.1L46.65-32.1Q45.4-32.1 45.4-30.85ZM77.9 13.75L77.9 13.75Q75.1 13.75 73.12 12.03 71.15 10.3 71.15 6.75 71.15 3.2 74.55 0.1L74.55 0.1Q68.5-0.75 65.65-4.58 62.8-8.4 62.8-14.48 62.8-20.55 65.02-25.88 67.25-31.2 71.65-34.63 76.05-38.05 81.17-38.05 86.3-38.05 89.22-35.58 92.15-33.1 92.15-28.8 92.15-24.5 89.6-21.88 87.05-19.25 83.57-19.25 80.1-19.25 78.2-20.78 76.3-22.3 76.3-24.03 76.3-25.75 77.67-26.73 79.05-27.7 81.7-27.7L81.7-27.7Q81.05-27.05 81.05-25.98 81.05-24.9 81.7-24.1 82.35-23.3 83.67-23.3 85-23.3 86.17-24.7 87.35-26.1 87.35-28.53 87.35-30.95 86.1-32.3 84.85-33.65 82.3-33.65L82.3-33.65Q78.9-33.65 76.12-30.9 73.35-28.15 71.9-23.9 70.45-19.65 70.45-14.95L70.45-14.95Q70.45-10.9 72.2-7.8L72.2-7.8Q73.1-6.2 74.87-5.25 76.65-4.3 78.37-4.3 80.1-4.3 81.15-4.45L81.15-4.45 82.4-15.35 89.4-15.35 88.3-7.2Q93.7-10.05 95.4-13.4L95.4-13.4 97.35-10.65Q94.1-5.65 87.75-3.05L87.75-3.05 87.1 2.35Q86.7 6 85.65 8.45 84.6 10.9 83.17 11.98 81.75 13.05 80.55 13.4 79.35 13.75 77.9 13.75ZM75.6 6.6L75.6 6.6Q75.6 7.5 76.15 8.15 76.7 8.8 77.42 8.8 78.15 8.8 78.55 8.55 78.95 8.3 79.4 7.25 79.85 6.2 80.1 4.3L80.1 4.3 80.6 0.2Q75.6 3.3 75.6 6.6ZM120.64-32.4L120.64-32.4Q119.84-32.75 119.07-32.75 118.29-32.75 117.57-31.8 116.84-30.85 116.59-29.05L116.59-29.05 113.99-10.5Q113.29-5.45 110.52-2.55 107.74 0.35 103.59 0.35L103.59 0.35Q99.44 0.35 97.17-1.98 94.89-4.3 94.89-7.53 94.89-10.75 97.12-13 99.34-15.25 102.74-15.25L102.74-15.25Q104.84-15.25 106.04-14.95L106.04-14.95 105.79-11.9Q104.94-12.1 103.17-12.1 101.39-12.1 100.02-10.9 98.64-9.7 98.64-7.9 98.64-6.1 99.64-5.13 100.64-4.15 102.04-4.15L102.04-4.15Q106.24-4.15 106.94-10.35L106.94-10.35Q108.29-22.75 108.89-27.1L108.89-27.1Q105.89-26.05 103.59-26.05L103.59-26.05Q99.94-26.05 98.02-27.75 96.09-29.45 96.09-32.2 96.09-34.95 98.07-36.52 100.04-38.1 103.04-38.1L103.04-38.1Q104.89-38.1 108.37-36.95 111.84-35.8 113.74-35.8L113.74-35.8Q117.14-35.8 119.44-37.55L119.44-37.55Q120.69-35.8 120.69-33.4L120.69-33.4Q120.69-32.9 120.64-32.4ZM101.04-30.85L101.04-30.85Q101.04-30.1 101.87-29.55 102.69-29 104.37-29 106.04-29 108.74-30.5L108.74-30.5Q106.79-30.95 104.74-31.53 102.69-32.1 102.29-32.1L102.29-32.1Q101.04-32.1 101.04-30.85ZM129.99-32.1Q128.94-29.8 126.89-28.3 124.84-26.8 122.44-26.8 120.04-26.8 118.52-28.2 116.99-29.6 116.99-32.35 116.99-35.1 119.44-36.58 121.89-38.05 125.19-38.05L125.19-38.05 145.04-38.05Q145.19-37.35 145.19-36.7L145.19-36.7Q145.19-35 144.09-33.55 142.99-32.1 140.74-32.1L140.74-32.1Q140.64-32.1 140.59-32.1L140.59-32.1 129.99-32.1ZM126.74-32.1L123.49-32.1Q121.64-32.1 121.64-30.8L121.64-30.8Q121.64-29.75 123.24-29.75L123.24-29.75Q123.99-29.75 125.02-30.4 126.04-31.05 126.74-32.1L126.74-32.1ZM133.84-9.6Q132.59 0.2 124.99 0.2L124.99 0.2Q122.29 0.2 120.67-1.45 119.04-3.1 119.04-5.6L119.04-5.6Q119.04-11.45 127.94-15.6L127.94-15.6 129.69-28.9Q131.74-30.2 134.44-30.2L134.44-30.2Q135.69-30.2 136.84-29.95L136.84-29.95 133.84-9.6ZM127.39-11.35Q122.74-8.65 122.74-6.15L122.74-6.15Q122.74-4.35 124.49-4.35L124.49-4.35Q126.49-4.35 126.99-8.2L126.99-8.2 127.39-11.35ZM165.09 0.1L165.09 0.1Q162.29 0.1 160.86-1.73 159.44-3.55 158.94-8.55L158.94-8.55Q158.64-11.15 158.34-15.3L158.34-15.3Q154.84-14.25 151.29-13.1L151.29-13.1 149.59-8.4Q149.09-7.05 148.89-6.48 148.69-5.9 148.16-4.75 147.64-3.6 147.26-3.08 146.89-2.55 146.21-1.75 145.54-0.95 144.84-0.6L144.84-0.6Q143.04 0.3 140.99 0.3 138.94 0.3 137.66-1.18 136.39-2.65 136.39-4.8L136.39-4.8Q136.39-5.4 136.49-6.05L136.49-6.05Q137.14-10.85 146.34-14.8L146.34-14.8Q148.94-21.45 154.99-37.2L154.99-37.2Q156.59-38.1 159.04-38.1L159.04-38.1Q159.59-38.1 160.09-38.1 160.59-38.1 161.31-38.1 162.04-38.1 163.14-37.8L163.14-37.8Q163.19-35.45 165.44-8.65L165.44-8.65Q165.64-6.4 165.99-5.73 166.34-5.05 167.19-5.05L167.19-5.05Q168.59-5.05 170.91-6.95 173.24-8.85 175.09-11.7L175.09-11.7 176.49-8.3 175.29-6.7Q170.04 0.1 165.09 0.1ZM157.99-19L157.14-29.4 152.79-17.25Q156.29-18.45 157.99-19L157.99-19ZM144.59-10.45Q139.94-8.1 139.94-5.85L139.94-5.85Q139.94-4.25 141.14-4.25L141.14-4.25Q142.04-4.25 142.59-5.55L142.59-5.55Q143.24-6.95 144.59-10.45L144.59-10.45ZM189.74-4.35L189.74-4.35Q190.29-4.15 190.96-4.15 191.64-4.15 192.26-4.3 192.89-4.45 193.41-5.03 193.94-5.6 194.24-5.95 194.54-6.3 194.99-7.5L194.99-7.5Q195.54-8.9 196.34-11.45L196.34-11.45Q198.44-9.5 198.84-8.5L198.84-8.5Q196.44 0.3 190.39 0.3L190.39 0.3Q187.54 0.3 183.14-3.4L183.14-3.4Q180.84 0.3 175.99 0.3L175.99 0.3Q173.84 0.3 172.11-1.15 170.39-2.6 170.39-5.3 170.39-8 172.19-9.73 173.99-11.45 176.84-11.45L176.84-11.45Q177.39-11.45 178.39-11.35L178.39-11.35 179.09-17.7Q176.89-17 172.29-15.9L172.29-15.9 172.29-19.65Q176.04-20.5 179.49-21.55L179.49-21.55 180.49-29.7Q181.54-38.05 188.99-38.05L188.99-38.05Q191.94-38.05 193.71-36.43 195.49-34.8 195.49-31.85L195.49-31.85Q195.49-24.75 186.34-20.4L186.34-20.4 184.84-8.6 184.79-8.1Q188.49-4.8 189.74-4.35ZM191.74-31.45L191.74-31.45Q191.74-33.55 189.99-33.55L189.99-33.55Q187.89-33.55 187.34-28.6L187.34-28.6 186.84-24.65Q191.74-27.55 191.74-31.45ZM174.19-5.65L174.19-5.65Q174.19-4.15 175.89-4.15L175.89-4.15Q177.54-4.15 177.94-7.1L177.94-7.1Q176.99-7.5 176.16-7.5 175.34-7.5 174.76-6.95 174.19-6.4 174.19-5.65ZM205.28-17.45L205.28-17.45Q202.38-15.4 202.38-11.35L202.38-11.35Q202.38-8.8 204.21-6.55 206.03-4.3 210.38-4.3 214.73-4.3 218.63-7.25 222.53-10.2 224.53-13.7L224.53-13.7 226.23-10.65Q219.78 0.3 208.28 0.3L208.28 0.3Q202.58 0.3 198.63-2.78 194.68-5.85 194.68-10L194.68-10Q194.68-17.25 201.13-20.5L201.13-20.5Q198.98-23.15 198.98-26.7L198.98-26.7Q198.98-31.35 203.01-34.7 207.03-38.05 212.33-38.05 217.63-38.05 220.51-35.35 223.38-32.65 223.38-28.25L223.38-28.25 218.63-28.25Q218.68-30.95 217.21-32.33 215.73-33.7 213.11-33.7 210.48-33.7 208.38-31.8L208.38-31.8Q206.03-29.75 206.03-27 206.03-24.25 207.53-22.25L207.53-22.25Q212.53-22.85 215.13-21.6L215.13-21.6Q216.73-20.85 216.73-19.23 216.73-17.6 214.91-16.95 213.08-16.3 210.53-16.3 207.98-16.3 205.28-17.45ZM247.23-30.8Q247.78-34.65 249.43-36.35 251.08-38.05 253.78-38.05 256.48-38.05 257.76-36.48 259.03-34.9 259.03-33.3L259.03-33.3Q259.03-32.8 258.93-32.3L258.93-32.3Q257.83-26.75 251.58-23.65L251.58-23.65 248.08 0 239.68 0 233.73-26.35 230.98-6.85Q230.43-3.15 228.71-1.4 226.98 0.35 224.68 0.35 222.38 0.35 220.86-1 219.33-2.35 218.98-4.85L218.98-4.85Q218.93-5.25 218.93-5.65L218.93-5.65Q218.93-10.6 226.38-14.15L226.38-14.15 228.53-30.25Q229.78-30.8 230.71-30.8 231.63-30.8 232.28-30.65L232.28-30.65Q231.13-32.45 228.63-32.45 226.13-32.45 224.23-29.85L224.23-29.85 223.28-34.15Q224.23-35.45 226.61-36.77 228.98-38.1 231.86-38.1 234.73-38.1 236.73-36.38 238.73-34.65 239.63-30.6L239.63-30.6 244.33-10.8 247.23-30.8ZM252.23-27.95L252.23-27.95Q255.33-30.15 255.33-32.05L255.33-32.05Q255.33-32.4 255.08-32.85 254.83-33.3 254.33-33.3L254.33-33.3Q253.38-33.3 253.03-32.25L253.03-32.25Q252.53-30.8 252.23-27.95ZM225.88-10Q222.43-8.05 222.43-6.2 222.43-4.35 223.78-4.35L223.78-4.35Q224.68-4.35 225.08-5.53 225.48-6.7 225.83-9.75L225.83-9.75 225.88-10ZM267.13-32.1Q266.08-29.8 264.03-28.3 261.98-26.8 259.58-26.8 257.18-26.8 255.65-28.2 254.13-29.6 254.13-32.35 254.13-35.1 256.58-36.58 259.03-38.05 262.33-38.05L262.33-38.05 282.18-38.05Q282.33-37.35 282.33-36.7L282.33-36.7Q282.33-35 281.23-33.55 280.13-32.1 277.88-32.1L277.88-32.1Q277.78-32.1 277.73-32.1L277.73-32.1 267.13-32.1ZM263.88-32.1L260.63-32.1Q258.78-32.1 258.78-30.8L258.78-30.8Q258.78-29.75 260.38-29.75L260.38-29.75Q261.13-29.75 262.15-30.4 263.18-31.05 263.88-32.1L263.88-32.1ZM270.98-9.6Q269.73 0.2 262.13 0.2L262.13 0.2Q259.43 0.2 257.8-1.45 256.18-3.1 256.18-5.6L256.18-5.6Q256.18-11.45 265.08-15.6L265.08-15.6 266.83-28.9Q268.88-30.2 271.58-30.2L271.58-30.2Q272.83-30.2 273.98-29.95L273.98-29.95 270.98-9.6ZM264.53-11.35Q259.88-8.65 259.88-6.15L259.88-6.15Q259.88-4.35 261.63-4.35L261.63-4.35Q263.63-4.35 264.13-8.2L264.13-8.2 264.53-11.35Z" opacity="1" transform="matrix(1,0,0,1,0,0)" fill="#000000" class="wordmark-text-0" data-fill-palette-color="primary" id="text-0"></path></svg></g></svg></g><g transform="matrix(1,0,0,1,75.54432,90.51958175196724)"><svg viewBox="0 0 244.43135999999998 23.50366293979887" height="23.50366293979887" width="244.43135999999998"><g transform="matrix(1,0,0,1,0,0)"><svg width="244.43135999999998" viewBox="2.8499999046325684 -33.79999923706055 362.91998291015625 34.89999771118164" height="23.50366293979887" data-palette-color="#f98e54"><path d="M13.6-3Q13.2-1.25 12.38-0.3 11.55 0.65 9.7 0.65L9.7 0.65Q8.15 0.65 7.43 0.13 6.7-0.4 6.7-1.65L6.7-1.65Q6.7-2.2 6.85-2.7L6.85-2.7 12.95-26.9Q12.9-26.9 9.7-26.55L9.7-26.55Q5.85-26.25 4.9-26.05L4.9-26.05Q3.9-26.4 3.38-27.13 2.85-27.85 2.85-28.85L2.85-28.85Q2.85-29.65 3.43-30.38 4-31.1 4.8-31.45L4.8-31.45Q7.3-31.95 11.8-32.3 16.3-32.65 23.35-33.05L23.35-33.05Q26.95-33.2 28.2-33.35L28.2-33.35Q29-33 29.58-32.27 30.15-31.55 30.15-30.75L30.15-30.75Q30.15-29.85 29.25-29 28.35-28.15 27.2-27.8L27.2-27.8 18.45-27.35Q19-27.15 19-26L19-26Q19-25.4 18.9-25.1L18.9-25.1Q18.05-21.3 16.57-15.25 15.1-9.2 14.6-7.05L14.6-7.05Q14.3-5.8 14.05-4.8 13.8-3.8 13.6-3L13.6-3ZM54.8-3.95Q55.4-3.85 56.2-2.85 57-1.85 57-1L57-1Q57-0.45 56.15-0.15L56.15-0.15Q55.85-0.05 55.17 0.23 54.5 0.5 53.95 0.6 53.4 0.7 52.7 0.7L52.7 0.7Q51.65 0.7 51.1 0.45L51.1 0.45Q49.7-0.15 47.45-2.35 45.2-4.55 43.1-7.38 41-10.2 40-12.65L40-12.65 39.7-12.65Q38.3-12.65 37.65-12.7L37.65-12.7Q36.15-7.15 35.15-3L35.15-3Q34.75-1.25 33.92-0.3 33.1 0.65 31.25 0.65L31.25 0.65Q29.7 0.65 28.97 0.13 28.25-0.4 28.25-1.65L28.25-1.65Q28.25-2.2 28.4-2.7L28.4-2.7 34.45-26.05Q31.85-25.3 30.5-24L30.5-24Q29.95-24.6 29.62-25.58 29.3-26.55 29.3-27.5L29.3-27.5Q29.3-28.2 29.72-28.63 30.15-29.05 30.9-29.4L30.9-29.4Q31.15-29.55 32.72-30.3 34.3-31.05 35.75-31.45L35.75-31.45Q36.2-32.45 37.12-33.1 38.05-33.75 39.5-33.75L39.5-33.75Q40.35-33.75 40.9-33.43 41.45-33.1 41.65-32.6L41.65-32.6Q43.5-33.2 46.1-33.2L46.1-33.2Q49.3-33.2 51.67-31.93 54.05-30.65 55.3-28.65 56.55-26.65 56.55-24.6L56.55-24.6Q56.55-20.05 53.62-17.32 50.7-14.6 46.1-13.45L46.1-13.45Q47.15-11.65 48.9-9.4 50.65-7.15 52.22-5.58 53.8-4 54.3-4L54.3-4 54.8-3.95ZM41.1-27.4Q39.65-21.6 38.7-17.35L38.7-17.35Q39.3-17.3 40.4-17.3L40.4-17.3Q42.8-17.3 45.2-18.03 47.6-18.75 49.22-20.2 50.85-21.65 50.85-23.8L50.85-23.8Q50.85-25.75 49.25-26.93 47.65-28.1 44.95-28.1L44.95-28.1Q43.45-28.1 41.1-27.4L41.1-27.4ZM63.9-29.55Q64.45-31.75 65.07-32.48 65.7-33.2 67.34-33.2L67.34-33.2Q68.7-33.2 69.67-32.9 70.65-32.6 70.7-32L70.7-32Q70.95-31.85 70.95-31.2L70.95-31.2Q70.95-30.15 70.4-28 69.84-25.85 68.8-22.4L68.8-22.4Q67.59-18.25 66.84-15.35 66.09-12.45 65.9-10.4L65.9-10.4 65.84-9.7Q65.84-7.7 66.84-6.43 67.84-5.15 69.3-4.58 70.75-4 72.15-4L72.15-4Q75.34-4 77.2-5.48 79.05-6.95 80.02-9.53 81-12.1 81.84-16.55L81.84-16.55Q82.3-18.8 83.25-23.05 84.2-27.3 84.5-28.2L84.5-28.2Q84.95-29.5 85.05-30.2L85.05-30.2Q85.34-31.35 85.67-31.95 86-32.55 86.7-33L86.7-33Q86.9-33.05 87.25-33.13 87.59-33.2 87.8-33.2L87.8-33.2Q89.5-33.2 90.62-32.9 91.75-32.6 91.95-32.15L91.95-32.15Q91.2-29.2 89.87-23.38 88.55-17.55 87.95-14.15L87.95-14.15Q85.2 1.05 71.45 1.05L71.45 1.05Q67.95 1.05 65.2-0.35 62.45-1.75 60.87-4.23 59.3-6.7 59.3-9.85L59.3-9.85Q59.3-11.45 59.75-13.15L59.75-13.15 63.9-29.55ZM119.69-33.8Q121.49-32.85 121.49-31.4L121.49-31.4Q121.49-30.5 120.52-29.73 119.54-28.95 118.34-28.65L118.34-28.65 116.14-28.5Q114.64-28.4 112.09-28.23 109.54-28.05 106.09-27.75L106.09-27.75 103.84-18.8Q106.99-19.3 109.07-19.6 111.14-19.9 113.69-20.1L113.69-20.1Q115.64-19.25 115.64-17.8L115.64-17.8Q115.64-16.9 114.74-16.05 113.84-15.2 112.69-14.85L112.69-14.85 109.84-14.55Q105.29-14.05 102.54-13.55L102.54-13.55Q101.94-10.8 100.84-6.6L100.84-6.6 100.44-5.05Q107.09-6.3 113.29-6.8L113.29-6.8Q115.24-5.95 115.24-4.5L115.24-4.5Q115.24-3.6 114.34-2.75 113.44-1.9 112.29-1.55L112.29-1.55Q102.79-0.45 98.89 0.3L98.89 0.3Q98.44 0.6 96.94 0.6L96.94 0.6Q95.54 0.6 94.47-0.7 93.39-2 93.39-3.4L93.39-3.4Q93.39-3.95 93.54-4.45L93.54-4.45 99.24-27 99.09-27Q99.04-27.55 98.39-28.35L98.39-28.35Q98.34-28.45 97.99-28.98 97.64-29.5 97.64-30L97.64-30Q97.74-31.45 99.54-32.3L99.54-32.3Q103.29-32.8 110.04-33.27 116.79-33.75 119.69-33.8L119.69-33.8ZM152.94-6.35Q154.89-5.5 154.89-4.05L154.89-4.05Q154.89-3.15 153.99-2.3 153.09-1.45 151.94-1.1L151.94-1.1Q149.19-0.8 148.04-0.75L148.04-0.75Q141.34-0.2 138.59 0.3L138.59 0.3Q138.14 0.6 136.69 0.6L136.69 0.6Q135.29 0.6 134.21-0.7 133.14-2 133.14-3.4L133.14-3.4Q133.14-3.95 133.29-4.45L133.29-4.45 139.69-29.75Q140.24-31.95 140.86-32.68 141.49-33.4 143.14-33.4L143.14-33.4Q144.49-33.4 145.46-33.1 146.44-32.8 146.49-32.2L146.49-32.2Q146.49-30.8 140.04-5L140.04-5Q144.44-5.75 151.24-6.2L151.24-6.2 152.94-6.35ZM183.54-33.8Q185.34-32.85 185.34-31.4L185.34-31.4Q185.34-30.5 184.36-29.73 183.39-28.95 182.19-28.65L182.19-28.65 179.99-28.5Q178.49-28.4 175.94-28.23 173.39-28.05 169.94-27.75L169.94-27.75 167.69-18.8Q170.84-19.3 172.91-19.6 174.99-19.9 177.54-20.1L177.54-20.1Q179.49-19.25 179.49-17.8L179.49-17.8Q179.49-16.9 178.59-16.05 177.69-15.2 176.54-14.85L176.54-14.85 173.69-14.55Q169.14-14.05 166.39-13.55L166.39-13.55Q165.78-10.8 164.69-6.6L164.69-6.6 164.28-5.05Q170.94-6.3 177.14-6.8L177.14-6.8Q179.09-5.95 179.09-4.5L179.09-4.5Q179.09-3.6 178.19-2.75 177.29-1.9 176.14-1.55L176.14-1.55Q166.64-0.45 162.74 0.3L162.74 0.3Q162.28 0.6 160.78 0.6L160.78 0.6Q159.39 0.6 158.31-0.7 157.24-2 157.24-3.4L157.24-3.4Q157.24-3.95 157.39-4.45L157.39-4.45 163.09-27 162.94-27Q162.89-27.55 162.24-28.35L162.24-28.35Q162.19-28.45 161.84-28.98 161.49-29.5 161.49-30L161.49-30Q161.59-31.45 163.39-32.3L163.39-32.3Q167.14-32.8 173.89-33.27 180.64-33.75 183.54-33.8L183.54-33.8ZM204.68-11.1Q198.13-10 194.23-9.1L194.23-9.1Q193.03-7.2 192.68-6.55L192.68-6.55Q191.63-4.7 190.81-3.48 189.98-2.25 189.03-1.3L189.03-1.3Q187.98-0.25 187.31 0.2 186.63 0.65 185.73 0.65L185.73 0.65Q184.23 0.65 183.11-0.03 181.98-0.7 181.98-1.4L181.98-1.4Q182.08-1.5 183.08-3.63 184.08-5.75 186.78-8.95L186.78-8.95Q186.78-9.35 186.53-9.95 186.28-10.55 186.28-10.65L186.28-10.65Q186.28-12.1 190.83-14.15L190.83-14.15Q193.38-17.95 196.21-21.65 199.03-25.35 203.13-30.4L203.13-30.4Q204.13-31.65 205.68-32.45 207.23-33.25 208.78-33.25L208.78-33.25Q210.38-33.25 211.18-32.95 211.98-32.65 212.21-32.15 212.43-31.65 212.43-30.75L212.43-30.75Q212.23-29.25 212.18-28.5L212.18-28.5Q211.43-22.45 211.06-18.13 210.68-13.8 210.68-9.5L210.68-9.5Q210.68-5.55 211.03-2.25L211.03-2.25Q210.88-1.05 209.98-0.08 209.08 0.9 207.88 0.9L207.88 0.9Q205.58 0.9 204.86-0.25 204.13-1.4 204.13-4.15L204.13-4.15Q204.13-6.15 204.68-11.1L204.68-11.1ZM198.18-14.85Q199.08-15.05 200.93-15.3L200.93-15.3 204.93-15.9Q205.38-22.85 205.98-25.9L205.98-25.9Q204.03-23.6 198.18-14.85L198.18-14.85ZM242.63-3.95Q243.23-3.85 244.03-2.85 244.83-1.85 244.83-1L244.83-1Q244.83-0.45 243.98-0.15L243.98-0.15Q243.68-0.05 243.01 0.23 242.33 0.5 241.78 0.6 241.23 0.7 240.53 0.7L240.53 0.7Q239.48 0.7 238.93 0.45L238.93 0.45Q237.53-0.15 235.28-2.35 233.03-4.55 230.93-7.38 228.83-10.2 227.83-12.65L227.83-12.65 227.53-12.65Q226.13-12.65 225.48-12.7L225.48-12.7Q223.98-7.15 222.98-3L222.98-3Q222.58-1.25 221.76-0.3 220.93 0.65 219.08 0.65L219.08 0.65Q217.53 0.65 216.81 0.13 216.08-0.4 216.08-1.65L216.08-1.65Q216.08-2.2 216.23-2.7L216.23-2.7 222.28-26.05Q219.68-25.3 218.33-24L218.33-24Q217.78-24.6 217.46-25.58 217.13-26.55 217.13-27.5L217.13-27.5Q217.13-28.2 217.56-28.63 217.98-29.05 218.73-29.4L218.73-29.4Q218.98-29.55 220.56-30.3 222.13-31.05 223.58-31.45L223.58-31.45Q224.03-32.45 224.96-33.1 225.88-33.75 227.33-33.75L227.33-33.75Q228.18-33.75 228.73-33.43 229.28-33.1 229.48-32.6L229.48-32.6Q231.33-33.2 233.93-33.2L233.93-33.2Q237.13-33.2 239.51-31.93 241.88-30.65 243.13-28.65 244.38-26.65 244.38-24.6L244.38-24.6Q244.38-20.05 241.46-17.32 238.53-14.6 233.93-13.45L233.93-13.45Q234.98-11.65 236.73-9.4 238.48-7.15 240.06-5.58 241.63-4 242.13-4L242.13-4 242.63-3.95ZM228.93-27.4Q227.48-21.6 226.53-17.35L226.53-17.35Q227.13-17.3 228.23-17.3L228.23-17.3Q230.63-17.3 233.03-18.03 235.43-18.75 237.06-20.2 238.68-21.65 238.68-23.8L238.68-23.8Q238.68-25.75 237.08-26.93 235.48-28.1 232.78-28.1L232.78-28.1Q231.28-28.1 228.93-27.4L228.93-27.4ZM276.88-33.4Q278.73-33.05 279.3-32.83 279.88-32.6 280.08-32.15L280.08-32.15Q279.03-28.1 277.33-20.68 275.63-13.25 275.03-10.7L275.03-10.7Q273.93-5.6 272.98-1.65L272.98-1.65Q272.28 1.1 270.78 1.1L270.78 1.1Q266.83 1.1 266.28-0.5L266.28-0.5 266.18-0.4 258.03-22.2 254.93-9.6Q254.03-6.15 252.98-1.8L252.98-1.8Q252.63-0.35 251.9 0.15 251.18 0.65 249.18 0.65L249.18 0.65Q247.63 0.65 246.9 0.13 246.18-0.4 246.18-1.65L246.18-1.65Q246.18-2.2 246.33-2.7L246.33-2.7 253.18-29.75Q253.73-31.95 254.35-32.68 254.98-33.4 256.63-33.4L256.63-33.4Q257.98-33.4 259.03-33.1 260.08-32.8 260.13-32.2L260.13-32.2 260.13-32.05 268.18-9.75Q271.43-25.45 272.33-28.2L272.33-28.2Q273.03-30.3 274.23-31.7 275.43-33.1 276.88-33.4L276.88-33.4ZM260.08-32.25L260.08-32.25ZM266.18-1.05L266.18-1.05ZM286.68-25.9Q285.68-26.25 285.15-26.98 284.63-27.7 284.63-28.7L284.63-28.7Q284.63-30.15 286.57-31L286.57-31Q293.73-32.45 300.98-33.05L300.98-33.05Q302.93-32.2 302.93-30.75L302.93-30.75Q302.93-29.85 302.02-29 301.13-28.15 299.98-27.8L299.98-27.8 297.23-27.45Q296.38-23.7 293.32-11.3L293.32-11.3 291.93-5.7 295.77-6.1Q297.73-5.25 297.73-3.8L297.73-3.8Q297.73-2.9 296.82-2.05 295.93-1.2 294.77-0.85L294.77-0.85 292.77-0.6Q285.43 0.2 281.48 1.05L281.48 1.05Q280.48 0.7 279.95-0.03 279.43-0.75 279.43-1.75L279.43-1.75Q279.43-3.2 281.38-4.05L281.38-4.05Q283.88-4.55 285.18-4.75L285.18-4.75 290.68-26.6Q288.63-26.3 286.68-25.9L286.68-25.9ZM331.32-33.4Q333.17-33.05 333.75-32.83 334.32-32.6 334.52-32.15L334.52-32.15Q333.47-28.1 331.77-20.68 330.07-13.25 329.47-10.7L329.47-10.7Q328.37-5.6 327.42-1.65L327.42-1.65Q326.72 1.1 325.22 1.1L325.22 1.1Q321.27 1.1 320.72-0.5L320.72-0.5 320.62-0.4 312.47-22.2 309.37-9.6Q308.47-6.15 307.42-1.8L307.42-1.8Q307.07-0.35 306.35 0.15 305.62 0.65 303.62 0.65L303.62 0.65Q302.07 0.65 301.35 0.13 300.62-0.4 300.62-1.65L300.62-1.65Q300.62-2.2 300.77-2.7L300.77-2.7 307.62-29.75Q308.17-31.95 308.8-32.68 309.42-33.4 311.07-33.4L311.07-33.4Q312.42-33.4 313.47-33.1 314.52-32.8 314.57-32.2L314.57-32.2 314.57-32.05 322.62-9.75Q325.87-25.45 326.77-28.2L326.77-28.2Q327.47-30.3 328.67-31.7 329.87-33.1 331.32-33.4L331.32-33.4ZM314.52-32.25L314.52-32.25ZM320.62-1.05L320.62-1.05ZM359.22-18.25Q361.27-18.25 362.25-17.53 363.22-16.8 363.47-15.78 363.72-14.75 363.72-13.15L363.72-13.15Q363.72-8.95 361.42-5.73 359.12-2.5 355.42-0.73 351.72 1.05 347.57 1.05L347.57 1.05Q341.57 1.05 338.77-2.3 335.97-5.65 335.97-10.5L335.97-10.5Q335.97-16.25 339.05-21.48 342.12-26.7 346.64-29.88 351.17-33.05 355.17-33.05L355.17-33.05Q360.77-33.05 363.27-30.83 365.77-28.6 365.77-24.35L365.77-24.35Q365.77-22.85 364.64-21.8 363.52-20.75 361.62-20.75L361.62-20.75Q360.12-20.75 359.59-21.55 359.07-22.35 359.07-23.6L359.07-23.6 359.12-25.2Q359.12-26.1 358.12-26.95 357.12-27.8 356.27-27.8L356.27-27.8Q353.47-27.8 350.12-25.28 346.77-22.75 344.47-18.48 342.17-14.2 342.17-9.2L342.17-9.2Q342.17-6.9 343.97-5.45 345.77-4 348.52-4L348.52-4Q350.47-4 352.62-5.18 354.77-6.35 356.25-8.38 357.72-10.4 357.72-12.7L357.72-12.7Q357.02-12.6 355.67-12.25L355.67-12.25Q353.72-11.75 352.34-11.5 350.97-11.25 349.62-11.25L349.62-11.25Q348.02-11.25 347.25-11.68 346.47-12.1 346.47-13.2L346.47-13.2Q346.47-13.95 346.84-14.95 347.22-15.95 347.77-16.4L347.77-16.4Q350.27-17.05 353.55-17.65 356.82-18.25 359.22-18.25L359.22-18.25Z" opacity="1" transform="matrix(1,0,0,1,0,0)" fill="#000000" class="slogan-text-1" data-fill-palette-color="secondary" id="text-1"></path></svg></g></svg></g></svg></g></svg></g><g transform="matrix(1,0,0,1,75.54432,0)"><svg viewBox="0 0 244.43135999999998 122.51779831843523" height="122.51779831843523" width="244.43135999999998"><g><svg xmlns="http://www.w3.org/2000/svg" xmlns:xlink="http://www.w3.org/1999/xlink" xml:space="preserve" style="shape-rendering:geometricPrecision;text-rendering:geometricPrecision;image-rendering:optimizeQuality;" viewBox="0.0000020265579223632812 0.0000027120113372802734 14.727499008178711 7.38195276260376" x="0" y="0" fill-rule="evenodd" clip-rule="evenodd" width="244.43135999999998" height="122.51779831843523" class="icon-icon-0" data-fill-palette-color="accent" id="icon-0"><g fill="#f98e54" data-fill-palette-color="accent"><path class="" d="M1.757 3.091c-0.313 0.444-0.296 1.331-0.417 1.95-0.153 0.784-0.711 1.203-1.34 1.534 0.188-0.771 0.348-1.542 0.412-2.313 0.078-0.953-0.06-0.891 0.767-1.575 1.159-0.961 3.04-1.741 5.848-2.29 2.456-0.406 5.049-0.453 7.701-0.351-0.89 1.809-3.733 1.961-7.203 1.581-1.811 0.02-3.495-0.488-5.768 1.464z m8.33 2.781c-3.895 2.038-7.803-2.284-9.165 0.688 2.104-1.831 5.079 3.183 9.165-0.688z m2.489-2.547c-4.49 2.72-9.502-0.792-10.907 1.859 3.412-1.235 7.765 2.753 10.907-1.859z m0.834-1.478c-3.944 1.761-10.043-1.402-11.565 2.239 3.106-1.808 8.446 1.438 11.565-2.239z" fill="#000000" data-fill-palette-color="accent"></path></g></svg></g></svg></g><g></g></svg></g><defs></defs></svg><rect width="385.1902628166487" height="247.2" fill="none" stroke="none" visibility="hidden"></rect></g></svg></g></svg>